<svg preserveAspectRatio="none" overflow="visible" style="display: block;" width="9.99055" height="15" viewBox="0 0 9.99055 15" fill="none" xmlns="http://www.w3.org/2000/svg">
<path id="icon" d="M4.99519 0C5.33333 0 5.60744 0.274111 5.60744 0.612245V12.9097L8.94539 9.57171C9.18448 9.33261 9.57214 9.33261 9.81123 9.57171C10.0503 9.81081 10.0503 10.1985 9.81123 10.4376L5.43686 14.8119C5.43404 14.8149 5.43118 14.8178 5.42828 14.8207C5.35556 14.8934 5.2691 14.944 5.17726 14.9725C5.17007 14.9747 5.16282 14.9768 5.15552 14.9788C5.11081 14.9909 5.06406 14.9981 5.01591 14.9997C5.00903 14.9999 5.00213 15 4.99519 15C4.83288 15 4.68532 14.9368 4.57575 14.8338C4.5682 14.8267 4.56083 14.8194 4.55365 14.8119L0.179322 10.4376C-0.0597741 10.1985 -0.0597741 9.81081 0.179322 9.57171C0.418419 9.33261 0.806071 9.33261 1.04517 9.57171L4.38295 12.9095V0.612245C4.38295 0.274111 4.65706 0 4.99519 0Z" fill="white"/>
</svg>
