<svg preserveAspectRatio="none" overflow="visible" style="display: block;" width="142.8" height="32" viewBox="0 0 142.8 32" fill="none" xmlns="http://www.w3.org/2000/svg">
<g id="Group">
<path id="Vector" d="M142.776 31.536H137.466V6.022L129.44 19.908C128.996 20.7008 128.347 21.3599 127.561 21.8165C126.775 22.2732 125.881 22.5106 124.972 22.504C123.122 22.504 121.392 21.518 120.478 19.908L112.454 5.902V31.536H107.146V5.64C107.148 4.96001 107.283 4.287 107.545 3.65938C107.806 3.03175 108.189 2.46182 108.671 1.98211C109.153 1.5024 109.725 1.12232 110.354 0.863556C110.982 0.604794 111.656 0.472422 112.336 0.474C114.186 0.474 115.892 1.458 116.806 3.068L124.974 17.434L133.142 3.068C133.825 1.87842 134.952 1.00817 136.276 0.647909C137.6 0.28765 139.012 0.466761 140.204 1.146C140.996 1.59707 141.654 2.25086 142.111 3.04027C142.567 3.82968 142.805 4.72626 142.8 5.638L142.774 31.538L142.776 31.536ZM22.92 31.544C22.0125 31.5438 21.1217 31.3008 20.3399 30.84C19.5581 30.3793 18.9138 29.7178 18.474 28.924L5.31 5.912V31.546H0V5.644C0.000468586 4.27668 0.540699 2.96483 1.50322 1.99369C2.46575 1.02255 3.77274 0.470651 5.14 0.458C7.016 0.458 8.72 1.444 9.658 3.078L22.822 26.092V0.456H28.132V26.38C28.145 27.5236 27.773 28.6383 27.0758 29.5449C26.3785 30.4514 25.3966 31.0971 24.288 31.378C23.8412 31.4929 23.3813 31.5473 22.92 31.544ZM49.514 32C40.674 32 33.514 24.84 33.514 16C33.514 7.16 40.674 0 49.514 0C58.354 0 65.514 7.16 65.514 16C65.5214 18.0951 65.1157 20.1712 64.3203 22.1095C63.5248 24.0477 62.3551 25.8102 60.8781 27.2962C59.401 28.7821 57.6456 29.9624 55.7122 30.7695C53.7787 31.5766 51.7051 31.9948 49.61 32H49.514ZM49.514 5.286C43.652 5.286 39.04 9.994 39.04 16C39.0173 17.4156 39.2752 18.8216 39.7987 20.137C40.3221 21.4524 41.1009 22.6511 42.09 23.664C44.053 25.6259 46.7147 26.728 49.49 26.728C52.2653 26.728 54.927 25.6259 56.89 23.664C58.8782 21.6119 59.9745 18.8571 59.94 16C59.964 9.994 55.376 5.286 49.514 5.286ZM85.79 32C76.95 32 69.79 24.84 69.79 16C69.79 7.16 76.95 0 85.79 0C94.63 0 101.79 7.16 101.79 16C101.797 18.0951 101.392 20.1712 100.596 22.1095C99.8008 24.0477 98.6311 25.8102 97.1541 27.2962C95.677 28.7821 93.9216 29.9624 91.9882 30.7695C90.0547 31.5766 87.9811 31.9948 85.886 32H85.79ZM85.79 5.286C79.93 5.286 75.316 9.994 75.316 16C75.2815 18.8571 76.3778 21.6119 78.366 23.664C80.329 25.6259 82.9907 26.728 85.766 26.728C88.5413 26.728 91.203 25.6259 93.166 23.664C95.1542 21.6119 96.2505 18.8571 96.216 16C96.216 9.994 91.628 5.286 85.79 5.286Z" fill="white"/>
</g>
</svg>
